# xmcd CD database file
#
# Track frame offsets:
#	150
#	11457
#	24397
#	46274
#	63867
#	74999
#	90698
#	107999
#	121051
#	148773
#
# Disc length: 2210 seconds
#
# Revision: 0
# Processed by: cddbd v1.5.2PL0 Copyright (c) Steve Scherf et al.
# Submitted via: CDex 1.70beta3
#
DISCID=8808a00a
DTITLE=太田昌宏 - Jazz Arrange Music World Vol.13 文部省唱歌編2
DYEAR=1900
DGENRE=Jazz
TTITLE0=鯉のぼり
TTITLE1=汽車ポッポ
TTITLE2=茶摘
TTITLE3=埴生の宿
TTITLE4=冬景色
TTITLE5=冬の夜
TTITLE6=海
TTITLE7=灯台守
TTITLE8=旅愁
TTITLE9=春風
EXTD=
EXTT0=
EXTT1=
EXTT2=
EXTT3=
EXTT4=
EXTT5=
EXTT6=
EXTT7=
EXTT8=
EXTT9=
PLAYORDER=
